PathFileType	4	(X/Y/Z)	c:/Users/goper/Files/vsCode/490R/osim_files/C07/C07_SSWS_04.trc
DataRate	CameraRate	NumFrames	NumMarkers	Units                	OrigDataRate	OrigDataStartFrame	OrigNumFrames
250.00	250.00	8	36	mm	250.0	1577	3153
                Frame#	Time	LPSIS			LASIS			LTH1			LTH2			LTH3			LTH4			LLFE			LMFE			LSH1			LSH2			LSH3			LSH4			LLMAL			LMMAL			LCAL			LMTP5			LTOE			LMTP1			RPSIS			RASIS			RTH1			RTH2			RTH3			RTH4			RLFE			RMFE			RSH1			RSH2			RSH3			RSH4			RLMAL			RMMAL			RCAL			RMTP1			RTOE			RMTP5		
		X1	Y1	Z1	X2	Y2	Z2	X3	Y3	Z3	X4	Y4	Z4	X5	Y5	Z5	X6	Y6	Z6	X7	Y7	Z7	X8	Y8	Z8	X9	Y9	Z9	X10	Y10	Z10	X11	Y11	Z11	X12	Y12	Z12	X13	Y13	Z13	X14	Y14	Z14	X15	Y15	Z15	X16	Y16	Z16	X17	Y17	Z17	X18	Y18	Z18	X19	Y19	Z19	X20	Y20	Z20	X21	Y21	Z21	X22	Y22	Z22	X23	Y23	Z23	X24	Y24	Z24	X25	Y25	Z25	X26	Y26	Z26	X27	Y27	Z27	X28	Y28	Z28	X29	Y29	Z29	X30	Y30	Z30	X31	Y31	Z31	X32	Y32	Z32	X33	Y33	Z33	X34	Y34	Z34	X35	Y35	Z35	X36	Y36	Z36

1577	6.30400	0.00000	0.00000	0.00000	-2872.61133	966.27167	450.61920	0.00000	0.00000	0.00000	0.00000	0.00000	0.00000	-2834.82935	614.09387	394.77170	0.00000	0.00000	0.00000	-2830.84790	494.70139	345.84961	0.00000	0.00000	0.00000	0.00000	0.00000	0.00000	-2888.76709	294.80075	560.20148	-2832.31055	307.95343	298.25180	0.00000	0.00000	0.00000	-2764.09766	104.35539	199.06653	-2811.48560	135.07463	142.08278	-2722.79541	52.01637	122.91100	-2860.89404	39.14044	262.32510	0.00000	0.00000	0.00000	-2928.57886	39.99392	177.87886	0.00000	0.00000	0.00000	-3031.54346	977.03772	254.81723	0.00000	0.00000	0.00000	-3095.26758	758.49915	204.56709	-3116.34229	679.47144	216.14186	-3113.18506	770.04218	280.86688	-3135.03662	512.03522	257.49664	-3045.50757	490.12430	315.97189	0.00000	0.00000	0.00000	0.00000	0.00000	0.00000	-3195.11475	346.42551	263.42480	-3204.11646	302.67819	267.43784	0.00000	0.00000	0.00000	0.00000	0.00000	0.00000	-2945.68286	245.23221	502.46994	0.00000	0.00000	0.00000	-3238.98193	83.72787	440.74200	0.00000	0.00000	0.00000
1578	6.30800	0.00000	0.00000	0.00000	-2874.31885	965.82404	452.10120	0.00000	0.00000	0.00000	-2779.33691	643.06299	436.86856	-2836.74097	613.66296	395.78281	0.00000	0.00000	0.00000	-2833.04517	494.32382	346.84576	0.00000	0.00000	0.00000	0.00000	0.00000	0.00000	-2890.57861	293.19669	561.50800	-2833.69482	307.64331	298.75558	0.00000	0.00000	0.00000	-2765.44971	104.58475	198.84885	-2812.45068	135.22540	142.35081	-2722.93091	52.34537	122.80484	-2860.82300	39.19881	262.20694	0.00000	0.00000	0.00000	-2928.64917	39.94831	177.83321	0.00000	0.00000	0.00000	-3034.64941	976.76263	257.36481	0.00000	0.00000	0.00000	0.00000	0.00000	0.00000	0.00000	0.00000	0.00000	-3116.18237	769.77063	283.07388	0.00000	0.00000	0.00000	-3047.85791	489.60654	317.45862	-3164.47632	329.25912	216.60973	-3196.04102	290.21582	242.12556	-3197.69043	345.89761	266.05847	-3206.76196	302.19949	270.48953	0.00000	0.00000	0.00000	-3162.88184	69.77488	267.28012	0.00000	0.00000	0.00000	0.00000	0.00000	0.00000	0.00000	0.00000	0.00000	-2886.75854	560.25159	204.46289
1579	6.31200	-2796.86816	996.93323	284.23169	-2876.05029	965.41571	453.49811	0.00000	0.00000	0.00000	-2780.85132	642.64996	438.14944	-2838.55640	613.33685	396.85855	0.00000	0.00000	0.00000	-2835.11572	493.98947	347.74469	0.00000	0.00000	0.00000	-2888.56982	559.46942	206.59709	-2892.38721	291.59079	562.81525	0.00000	0.00000	0.00000	0.00000	0.00000	0.00000	-2765.88550	104.95396	198.85521	-2812.97900	135.40800	142.38095	-2723.07227	52.74744	122.69151	-2860.84814	39.22643	262.13864	-2937.49072	47.61709	235.45197	-2928.77588	39.88682	177.77499	0.00000	0.00000	0.00000	-3037.78491	976.53729	259.89407	0.00000	0.00000	0.00000	-3101.19629	757.97534	208.97282	0.00000	0.00000	0.00000	-3119.16699	769.32520	285.33511	0.00000	0.00000	0.00000	-3050.02417	489.42545	319.43124	-3166.69141	328.10706	219.55432	0.00000	0.00000	0.00000	-3200.04492	345.22440	268.66534	-3207.94897	301.35507	273.19672	0.00000	0.00000	0.00000	-3166.09180	69.21547	272.29565	0.00000	0.00000	0.00000	0.00000	0.00000	0.00000	-2734.14526	123.16706	221.14996	0.00000	0.00000	0.00000
1580	6.31600	-2799.77002	996.31592	285.27988	-2877.72852	964.98840	454.92764	0.00000	0.00000	0.00000	0.00000	0.00000	0.00000	-2840.54517	612.88843	397.88202	0.00000	0.00000	0.00000	-2837.29272	493.58438	348.70346	-2879.57349	502.65546	236.50693	0.00000	0.00000	0.00000	-2894.19238	289.98325	564.12341	0.00000	0.00000	0.00000	0.00000	0.00000	0.00000	-2766.33154	105.25997	198.83125	-2813.54688	135.69522	142.41299	-2723.22192	53.22742	122.52969	-2863.35034	38.61380	263.64053	-2935.35962	46.36217	235.63039	-2928.95190	39.82474	177.72011	0.00000	0.00000	0.00000	-3040.98218	976.20386	262.52634	0.00000	0.00000	0.00000	0.00000	0.00000	0.00000	0.00000	0.00000	0.00000	-3122.09814	768.72736	287.64169	0.00000	0.00000	0.00000	-3052.64038	488.99112	321.13885	-3168.87817	326.95428	222.42795	-3200.81738	288.45401	248.18616	-3204.61499	345.79105	271.64935	-3211.83276	301.05417	276.23196	0.00000	0.00000	0.00000	-3169.22656	68.63887	277.26086	0.00000	0.00000	0.00000	0.00000	0.00000	0.00000	0.00000	0.00000	0.00000	-2890.52222	558.75977	208.77345
1581	6.32000	-2802.64453	995.74646	286.23154	-2879.43652	964.57758	456.40271	0.00000	0.00000	0.00000	0.00000	0.00000	0.00000	-2842.50073	612.44116	398.87997	0.00000	0.00000	0.00000	-2839.37134	493.21552	349.60440	0.00000	0.00000	0.00000	-2892.62769	558.21497	210.96860	-2895.99463	288.37402	565.43231	0.00000	0.00000	0.00000	0.00000	0.00000	0.00000	-2766.69434	105.63992	198.76675	-2814.12280	136.02049	142.42287	-2723.35034	53.86186	122.42706	0.00000	0.00000	0.00000	-2935.32422	46.41723	235.89363	-2929.09424	39.75864	177.65121	0.00000	0.00000	0.00000	-3044.25732	975.95074	265.17319	0.00000	0.00000	0.00000	0.00000	0.00000	0.00000	0.00000	0.00000	0.00000	-3125.11841	768.21875	289.91870	0.00000	0.00000	0.00000	-3055.03589	488.51294	322.94675	-3170.94873	325.78897	225.31700	0.00000	0.00000	0.00000	-3206.86133	345.06619	274.19382	-3212.56201	299.96814	278.96509	0.00000	0.00000	0.00000	-3171.69580	67.92762	281.86401	0.00000	0.00000	0.00000	0.00000	0.00000	0.00000	-3286.56934	114.31557	470.49695	0.00000	0.00000	0.00000
1582	6.32400	-2805.54077	995.17657	287.16534	-2881.06982	964.15143	457.84720	0.00000	0.00000	0.00000	-2786.24927	641.87531	442.21448	-2844.44336	611.98236	399.88956	0.00000	0.00000	0.00000	-2841.58105	492.80243	350.53265	-2885.12183	501.94769	239.16647	-2894.57495	557.45782	213.26082	-2897.79370	286.76334	566.74200	0.00000	0.00000	0.00000	0.00000	0.00000	0.00000	-2766.98975	106.18138	198.59070	-2814.83765	136.37659	142.43214	-2723.56982	54.48945	122.13660	-2863.51465	38.56659	263.44800	-2935.39697	46.42120	235.82660	-2929.26660	39.67787	177.53391	0.00000	0.00000	0.00000	-3047.52295	975.63269	267.89325	0.00000	0.00000	0.00000	-3109.76611	756.56061	216.11708	0.00000	0.00000	0.00000	-3128.22998	767.55786	292.31241	0.00000	0.00000	0.00000	0.00000	0.00000	0.00000	-3173.02124	324.66876	228.15135	0.00000	0.00000	0.00000	-3208.92944	344.30548	276.90189	-3214.59058	299.24579	281.93970	0.00000	0.00000	0.00000	-3173.99365	67.28128	286.31021	0.00000	0.00000	0.00000	0.00000	0.00000	0.00000	0.00000	0.00000	0.00000	-3057.73218	367.66727	145.70880
1583	6.32800	0.00000	0.00000	0.00000	-2882.79102	963.74432	459.29651	0.00000	0.00000	0.00000	0.00000	0.00000	0.00000	-2846.41943	611.54803	400.86752	0.00000	0.00000	0.00000	-2843.81714	492.43152	351.49994	-2888.07495	501.63663	240.47791	-2896.71533	556.82660	215.53525	-2899.59033	285.15125	568.05225	0.00000	0.00000	0.00000	0.00000	0.00000	0.00000	-2766.39990	106.77220	198.64673	-2814.73560	136.68573	142.15472	-2723.87720	55.19704	121.91000	-2863.62378	38.58074	263.31635	-2935.42993	46.30311	235.80484	-2929.42285	39.62101	177.45229	0.00000	0.00000	0.00000	-3050.63477	975.24225	270.61188	0.00000	0.00000	0.00000	-3112.61084	755.94629	218.54533	0.00000	0.00000	0.00000	0.00000	0.00000	0.00000	0.00000	0.00000	0.00000	-3059.40942	487.57077	327.08484	-3175.06396	323.58453	230.99438	-3207.09717	285.61356	257.38776	-3211.08765	343.51141	279.66620	-3220.35815	299.48792	285.08832	0.00000	0.00000	0.00000	-3175.89795	66.65254	290.39923	0.00000	0.00000	0.00000	0.00000	0.00000	0.00000	-2862.10596	644.56409	832.20032	0.00000	0.00000	0.00000
1584	6.33200	0.00000	0.00000	0.00000	-2884.34814	963.31097	460.83527	0.00000	0.00000	0.00000	0.00000	0.00000	0.00000	-2848.40210	611.15601	401.85938	0.00000	0.00000	0.00000	-2846.25659	492.00977	352.59479	0.00000	0.00000	0.00000	-2898.58398	555.96710	217.82928	-2901.38428	283.53784	569.36322	0.00000	0.00000	0.00000	0.00000	0.00000	0.00000	-2766.84595	107.23231	198.53290	-2816.18384	137.16234	142.39519	-2724.20874	55.96463	121.73858	-2863.71265	38.63829	263.18924	-2935.44189	46.14051	235.76968	-2929.58081	39.49453	177.31218	0.00000	0.00000	0.00000	-3052.21655	974.44995	273.18069	-3228.17749	97.83458	485.96786	0.00000	0.00000	0.00000	0.00000	0.00000	0.00000	-3317.79224	69.69174	432.93863	0.00000	0.00000	0.00000	0.00000	0.00000	0.00000	-3177.09570	322.54568	233.92677	0.00000	0.00000	0.00000	-3213.05786	342.65060	282.60489	-3218.23535	297.46732	288.11761	0.00000	0.00000	0.00000	-3177.47803	65.87678	294.18701	0.00000	0.00000	0.00000	0.00000	0.00000	0.00000	0.00000	0.00000	0.00000	-2864.97339	644.68109	833.04608
